HIERARCHY
ROOT Hips
{
  OFFSET 40.9192 92.6879 18.85
  CHANNELS 6 Xposition Yposition Zposition Zrotation Xrotation Yrotation
  JOINT LeftUpLeg
  {
    OFFSET 8.64259 1.95398 -2.38835
    CHANNELS 3 Zrotation Xrotation Yrotation
    JOINT LeftLeg
    {
      OFFSET 43.7702 0 0
      CHANNELS 3 Zrotation Xrotation Yrotation
      JOINT LeftFoot
      {
        OFFSET 40.6238 0 0
        CHANNELS 3 Zrotation Xrotation Yrotation
        JOINT LeftToeBase
        {
          OFFSET 12.7242 0 0
          CHANNELS 3 Zrotation Xrotation Yrotation
          End Site
          {
            OFFSET 0 0 0
          }
        }
      }
    }
  }
  JOINT RightUpLeg
  {
    OFFSET -8.2249 1.95398 -2.59336
    CHANNELS 3 Zrotation Xrotation Yrotation
    JOINT RightLeg
    {
      OFFSET 43.5653 0 0
      CHANNELS 3 Zrotation Xrotation Yrotation
      JOINT RightFoot
      {
        OFFSET 40.6238 0 0
        CHANNELS 3 Zrotation Xrotation Yrotation
        JOINT RightToeBase
        {
          OFFSET 12.7242 0 0
          CHANNELS 3 Zrotation Xrotation Yrotation
          End Site
          {
            OFFSET 0 0 0
          }
        }
      }
    }
  }
  JOINT Spine
  {
    OFFSET 0.165834 0.87714 6.61349
    CHANNELS 3 Zrotation Xrotation Yrotation
    JOINT Spine1
    {
      OFFSET 7.38963 1.71661e-005 0
      CHANNELS 3 Zrotation Xrotation Yrotation
      JOINT Spine2
      {
        OFFSET 11.9445 1.14441e-005 0
        CHANNELS 3 Zrotation Xrotation Yrotation
        JOINT Spine3
        {
          OFFSET 14.7254 4.19617e-005 0
          CHANNELS 3 Zrotation Xrotation Yrotation
          JOINT Spine4
          {
            OFFSET 10.9679 0 0
            CHANNELS 3 Zrotation Xrotation Yrotation
            JOINT RightShoulder
            {
              OFFSET 2.46616 -1.6653 3.69651
              CHANNELS 3 Zrotation Xrotation Yrotation
              JOINT RightArm
              {
                OFFSET 13.0012 0 0
                CHANNELS 3 Zrotation Xrotation Yrotation
                JOINT RightForeArm
                {
                  OFFSET 28.7848 1.52588e-005 0
                  CHANNELS 3 Zrotation Xrotation Yrotation
                  JOINT RightHand
                  {
                    OFFSET 26.5688 1.52588e-005 0
                    CHANNELS 3 Zrotation Xrotation Yrotation
                    End Site
                    {
                      OFFSET 0 0 0
                    }
                  }
                }
              }
            }
            JOINT LeftShoulder
            {
              OFFSET 2.38034 -1.29275 -3.7523
              CHANNELS 3 Zrotation Xrotation Yrotation
              JOINT LeftArm
              {
                OFFSET 16.3182 6.10351e-005 0
                CHANNELS 3 Zrotation Xrotation Yrotation
                JOINT LeftForeArm
                {
                  OFFSET 27.0901 0 0
                  CHANNELS 3 Zrotation Xrotation Yrotation
                  JOINT LeftHand
                  {
                    OFFSET 24.5451 1.52588e-005 0
                    CHANNELS 3 Zrotation Xrotation Yrotation
                    End Site
                    {
                      OFFSET 0 0 0
                    }
                  }
                }
              }
            }
            JOINT Neck
            {
              OFFSET 5.0226 -0.0266342 0
              CHANNELS 3 Zrotation Xrotation Yrotation
              JOINT Head
              {
                OFFSET 6.69363 2.86102e-005 0
                CHANNELS 3 Zrotation Xrotation Yrotation
                End Site
                {
                  OFFSET 0 0 0
                }
              }
            }
          }
        }
      }
    }
  }
}
MOTION
Frames:	17
Frame Time:	0.0416667
152.402 11.908 146.149 2.17011 -9.66408 43.6267 -169.859 1.26588 91.526 -19.0956 23.0053 -3.73241 55.3476 -2.3342 0.0829224 67.0409 38.8872 19.6525 176.431 5.75239 85.2806 -32.74 -24.6236 -8.12747 63.6678 -2.26745 -1.25653 53.8649 2.47772 7.75747 -2.00334 10.9535 -94.5587 4.64845 -5.86456 -8.87326 -7.03777 -6.24798 -8.60871 -29.3652 -2.94276 -10.212 -9.35257 -2.94273 -10.212 83.6803 56.7201 -29.3937 63.6008 -13.7002 -37.2818 -41.2889 22.9987 -122.977 -66.091 -6.67339 9.31747 -50.4473 -72.7482 129.454 -16.1696 -35.8398 8.43151 26.5058 -23.9088 -148.954 64.0597 14.5804 17.8711 78.6226 31.0188 46.3956 3.92715 -11.3976 -39.7332 
152.468 11.9448 146.218 2.2732 -9.71416 43.6161 -169.888 1.18566 91.4599 -19.3713 23.2962 -3.76026 54.2877 -3.1637 0.36373 65.4301 35.8539 16.9252 176.255 5.61702 85.2264 -32.451 -24.3516 -7.98753 63.1472 -2.05845 -1.13066 54.2342 2.52727 7.96243 -2.05249 10.9301 -94.6053 4.68658 -5.98326 -8.96113 -6.99967 -6.37037 -8.69133 -29.3242 -3.03008 -10.3309 -9.31158 -3.03007 -10.3309 82.9967 57.5215 -29.2538 64.0716 -13.9229 -36.6074 -41.3609 23.4868 -122.857 -66.1044 -6.79838 9.53662 -49.904 -73.101 129.975 -16.1773 -36.1817 8.69551 26.2336 -23.2951 -149.025 64.4289 14.4315 17.4981 78.1381 31.4668 47.0658 3.56975 -11.1565 -39.8285 
152.466 11.9471 146.212 2.17536 -9.7013 43.6075 -169.828 1.33558 91.4933 -19.502 23.1863 -3.81617 54.3767 -3.11728 0.290707 65.5364 35.8441 16.6857 176.411 5.68105 85.2639 -32.3863 -24.1741 -8.05363 62.2144 -1.69692 -0.920325 60.7624 2.93616 5.96154 -2.03573 10.8748 -94.6177 4.79742 -5.9592 -8.97913 -6.8891 -6.34711 -8.71039 -29.212 -3.00178 -10.3408 -9.19941 -3.00178 -10.3408 82.492 58.2627 -29.4381 64.4711 -13.8554 -35.8228 -41.5882 23.6821 -122.869 -66.3745 -6.79768 9.52458 -50.171 -73.5186 129.537 -15.5754 -36.5049 9.2087 26.2328 -23.2418 -148.988 64.5467 14.3502 17.3301 77.6867 31.6063 47.5351 4.82203 -11.5117 -39.6658 
152.466 11.967 146.21 2.19539 -9.81809 43.621 -169.808 1.264 91.4841 -19.6082 23.2704 -3.8635 54.6185 -2.89012 1.25212 65.3954 35.4383 16.1401 176.515 5.55269 85.3067 -32.2555 -24.1141 -8.11695 62.2444 -1.73282 -0.945954 60.5138 3.00516 6.45454 -2.04522 10.779 -94.6441 4.98605 -5.99651 -9.0191 -6.70054 -6.38613 -8.74871 -29.0218 -3.0256 -10.3899 -9.00918 -3.02559 -10.39 81.4157 59.9367 -30.0259 65.284 -13.7768 -34.4811 -41.9541 23.7896 -122.692 -66.0402 -6.73484 9.53335 -50.7305 -74.0554 128.73 -14.5168 -37.1218 10.3172 25.8646 -22.7179 -149.21 64.6453 14.323 17.25 74.5614 33.3854 49.0163 4.79823 -9.30407 -40.019 
152.426 11.9945 146.189 2.35594 -9.82384 43.5673 -169.829 1.30343 91.4017 -19.8983 23.3847 -3.8929 54.6076 -2.88201 1.69676 65.2753 35.5101 16.5321 176.402 5.53761 85.1882 -32.512 -24.3461 -8.13757 62.4867 -1.8079 -0.988291 59.9803 2.97765 6.60435 -2.07243 10.6699 -94.6846 5.19817 -6.07593 -9.08483 -6.48846 -6.46835 -8.81093 -28.8074 -3.082 -10.4761 -8.79473 -3.08199 -10.4761 80.3057 62.0855 -31.3282 66.4147 -12.7078 -31.5846 -41.5642 23.8396 -123.23 -65.8926 -7.20667 10.2742 -51.8091 -74.8149 127.271 -13.112 -37.919 12.2377 25.5214 -22.268 -149.592 63.7593 14.2767 17.5392 72.8301 33.6592 50.8933 6.07644 -10.0355 -40.3439 
152.428 12.0329 146.234 2.20446 -9.84296 43.4841 -169.764 1.31057 91.3385 -19.7823 22.2512 -3.95604 54.4423 -3.00642 1.27838 66.3953 35.1017 13.4434 176.338 5.66864 85.0813 -32.392 -24.4919 -8.07505 62.0195 -1.63099 -0.885565 60.7633 3.19915 7.20757 -2.08994 10.5038 -94.7786 5.51951 -6.16264 -9.24847 -6.16783 -6.56207 -8.97073 -28.4784 -3.11644 -10.6575 -8.46575 -3.11644 -10.6575 78.9379 65.2154 -33.5842 68.1715 -10.1731 -28.1488 -41.4628 24.0371 -124.108 -65.6332 -6.88107 9.95166 -51.5596 -75.716 127.296 -12.1363 -37.6804 13.5913 25.4399 -21.736 -149.215 64.0474 13.8512 16.7857 70.7318 34.1593 53.3982 5.36555 -10.2438 -41.1004 
152.442 12.0678 146.221 2.20368 -9.93966 43.4475 -169.751 1.21029 91.2263 -19.8916 21.5692 -3.9617 55.029 -2.52328 1.12577 65.2884 34.2229 13.8056 176.438 5.66928 85.0767 -32.6165 -24.707 -8.20677 62.1859 -1.70551 -0.928776 59.6985 2.95745 6.6582 -2.09915 10.3614 -94.8598 5.79547 -6.22601 -9.38982 -5.89253 -6.63152 -9.10924 -28.1956 -3.13521 -10.8107 -8.1829 -3.1352 -10.8107 77.812 67.8301 -35.3469 69.9365 -8.68169 -24.388 -40.993 24.3697 -124.963 -65.5473 -6.66965 9.68905 -52.2221 -77.002 126.187 -10.3339 -38.9521 15.8497 24.8656 -20.9306 -149.682 63.8574 13.6938 16.6233 68.4918 34.6957 55.8955 6.04424 -10.7518 -42.7253 
152.42 12.107 146.128 2.24614 -10.1269 43.3459 -169.665 0.77647 91.1302 -19.2299 21.1568 -3.9602 54.6625 -2.83366 -0.458732 65.7578 35.7971 16.1409 176.363 5.77597 84.9432 -33.0921 -24.8332 -8.37837 62.3191 -1.70464 -0.920715 60.4253 3.01395 6.53919 -2.14756 10.2082 -94.9978 6.08323 -6.39231 -9.63896 -5.60569 -6.80849 -9.35104 -27.8963 -3.22051 -11.097 -7.88364 -3.22049 -11.097 76.0174 70.5621 -36.0963 71.256 -7.68907 -23.419 -42.2806 25.0132 -124.785 -64.0508 -7.18262 10.9762 -52.3564 -78.7351 125.567 -8.91132 -40.9517 18.241 24.5214 -20.429 -150.173 62.4877 13.4965 16.8654 65.5616 35.5569 59.155 6.26959 -10.8495 -44.4833 
152.516 12.1686 146.134 2.67029 -10.2287 43.3048 -169.809 0.652579 90.9677 -19.8575 21.8767 -3.96662 55.1503 -2.43607 0.913779 64.3953 34.7861 16.8437 176.04 5.25119 84.6817 -32.58 -24.7509 -8.1334 62.197 -1.69522 -0.920121 60.3042 3.09538 6.97953 -2.22753 10.0506 -95.1694 6.37273 -6.63646 -9.95093 -5.31716 -7.06596 -9.65223 -27.5926 -3.36173 -11.466 -7.57994 -3.36173 -11.466 74.0353 73.706 -37.13 71.643 -6.01464 -21.0288 -42.1916 25.2031 -125.071 -63.4627 -7.07072 10.9703 -52.3287 -80.3538 125.164 -6.47775 -41.4713 21.0191 23.618 -18.5641 -150.32 62.8387 13.106 16.127 62.7329 36.1848 62.696 6.72284 -11.2354 -45.2287 
152.479 12.2075 146.094 2.48149 -10.5879 43.391 -169.667 0.594288 91.1207 -19.9413 22.4287 -4.03171 55.1214 -2.4384 1.59436 64.8243 34.4566 15.2547 176.275 5.22409 84.8691 -32.8547 -24.8375 -8.3702 62.1368 -1.67018 -0.899221 58.8989 3.21146 8.34157 -1.60575 10.6111 -93.0464 7.69556 -4.56294 -5.96633 -3.96187 -4.82086 -5.76068 -26.6119 -2.55411 -7.05487 -6.59929 -2.55412 -7.05486 109.018 48.8449 -83.9508 57.5555 -4.81416 -15.1897 -39.426 23.7133 -125.179 -64.7896 -6.88244 9.78188 -79.5616 -54.4955 91.1582 -17.2323 -31.8923 17.3223 26.8971 -23.1584 -146.864 62.7955 13.7717 17.1747 84.9395 33.6067 31.5323 14.0799 -10.8615 -33.4034 
152.4 12.3229 146.023 2.89054 -10.8824 43.3708 -169.657 -0.0124252 91.1038 -19.7452 21.7856 -3.93818 55.6603 -1.98089 1.02774 65.3563 36.4282 18.2297 176.058 5.0039 84.6802 -33.3084 -25.0999 -8.35203 62.9781 -1.98955 -1.08611 58.8992 2.97972 7.20388 0.741836 8.43444 -84.1747 8.83502 4.0415 11.5532 -2.88671 4.54164 11.3676 -24.9328 0.42198 12.2254 -4.92013 0.421967 12.2254 161.002 -69.6764 -10.1079 -0.508786 -1.58803 0.404264 -31.0227 19.9521 -124.506 -65.4121 -7.0761 7.8249 -88.274 60.5627 121.574 -55.3478 7.67964 3.04725 43.8728 -37.8455 -130.515 58.6739 14.6827 20.4046 10.3624 -21.7155 -75.1402 33.9637 1.29006 17.4488 
152.44 12.5216 145.906 2.81665 -11.8284 43.0776 -169.537 -0.748415 90.6475 -19.676 20.5735 -4.12271 55.8646 -1.74723 1.22141 64.8602 35.7887 17.9495 175.937 4.75684 84.3042 -33.5534 -24.9418 -8.45801 62.2511 -1.69951 -0.913715 60.9645 2.97266 6.09445 0.507221 8.77137 -84.7677 9.06933 3.34598 10.1313 -2.63553 3.78642 9.97646 -24.8555 0.165616 10.6628 -4.84287 0.165613 10.6628 137.625 -67.4286 -37.7032 3.5652 -2.31063 -2.56368 -35.2653 22.5835 -122.619 -64.7902 -7.15807 8.58979 -81.3645 52.1478 112.923 -52.3843 2.03238 2.68274 39.2658 -35.6656 -134.072 52.1252 12.7849 20.3462 22.6273 -23.7721 -67.0748 31.6851 1.01016 13.6268 
152.705 12.6767 145.64 2.99847 -13.0329 43.0564 -169.738 -1.88906 90.4177 -19.2877 22.0015 -4.049 55.6425 -1.75519 3.14081 64.5252 35.3998 17.8495 174.81 4.0883 83.4611 -33.4946 -25.6518 -7.87343 61.921 -1.55148 -0.820814 62.8936 2.96311 5.16892 0.416414 8.79273 -84.9918 9.05445 3.06459 9.70691 -2.64801 3.48688 9.56453 -24.8933 0.022262 10.1747 -4.88071 0.0222695 10.1747 133.281 -66.9768 -42.7834 3.46742 -0.93556 -3.75688 -36.0804 22.5884 -122.39 -62.9557 -8.83853 11.7562 -81.058 48.6883 114.844 -53.3365 1.18101 0.821433 38.5657 -36.4769 -134.842 48.2666 11.455 19.7498 23.5325 -22.9311 -65.7352 30.5068 1.88755 13.337 
152.999 12.7025 145.3 2.01919 -14.0031 42.7626 -169.776 -2.02796 90.2337 -19.3406 22.5966 -4.12235 55.6692 -1.86294 2.27056 65.6909 35.7886 16.2602 174.666 4.37863 83.1858 -33.5162 -25.3182 -7.79895 61.7233 -1.44271 -0.7634 66.704 2.52425 2.17427 0.405244 8.74692 -85.189 9.16377 2.95901 9.32159 -2.53623 3.36468 9.18404 -24.8041 0.035473 9.77596 -4.79145 0.0354753 9.77595 130.289 -66.2773 -46.1984 2.41491 -0.239632 -4.76725 -35.6303 22.1063 -122.363 -61.8645 -8.30104 11.1167 -80.2969 44.8536 115.239 -55.5687 3.43255 -1.94919 45.2239 -42.743 -130.737 44.4741 10.8854 20.6064 24.5939 -22.369 -63.8905 29.4541 2.37134 13.0114 
153.427 12.893 144.993 1.62763 -15.4267 42.8154 -169.696 -3.16907 90.3187 -18.4039 23.2771 -4.04555 55.1514 -2.26499 1.6879 67.5712 36.6654 14.3586 174.161 4.2367 82.9303 -34.0325 -24.3277 -7.40606 60.7953 -1.0279 -0.486469 69.6971 2.1952 0.412595 0.408484 8.80011 -85.4586 9.0791 2.84197 8.79636 -2.61759 3.22491 8.66421 -24.9148 0.0794063 9.24028 -4.90211 0.0794132 9.24029 129.002 -64.9881 -47.3493 -0.219604 -1.91331 -7.43297 -35.068 21.034 -120.936 -63.0296 -7.58568 9.4662 -79.1805 39.6975 114.932 -55.7551 5.83148 -5.85658 45.3771 -46.8617 -131.54 38.973 8.98365 19.3971 26.1955 -21.7715 -61.1641 28.3186 2.86675 12.7009 
153.819 13.2252 144.536 0.82412 -17.569 42.732 -169.803 -4.40292 90.1294 -17.2632 23.5696 -4.05536 54.9204 -2.40977 1.51784 70.553 37.8647 11.2463 172.359 4.79735 81.6997 -34.7506 -21.0161 -5.51604 58.4584 -0.0646441 0.149702 66.0028 -0.00220245 -7.31217 0.40828 8.8855 -85.8038 8.93447 2.68266 8.12617 -2.7583 3.03657 8.00136 -25.0905 0.126301 8.55377 -5.07782 0.126302 8.55376 124.951 -55.3006 -49.138 4.97268 -12.3823 -16.7578 -41.6589 21.0262 -113.162 -61.5348 -7.86829 10.5982 -77.9361 33.2449 113.366 -54.6484 2.50927 -5.20691 42.0895 -49.0107 -135.998 35.2043 7.87041 18.7518 28.5067 -20.9885 -57.4183 25.9786 3.51452 12.9281 
154.308 14.0572 143.496 -1.12616 -20.8952 41.7723 -169.765 -6.50437 89.0144 -14.7517 21.8244 -4.56144 55.0212 -2.13908 1.26042 70.086 38.3795 13.0578 167.16 8.76298 77.4945 -38.4677 -12.2986 -0.750638 56.6457 0.612046 0.624064 60.51 -0.310716 -8.8577 0.470739 9.00899 -86.2307 8.71408 2.61063 7.28887 -2.97401 2.92807 7.16779 -25.3464 0.306627 7.7339 -5.3338 0.306642 7.73389 118.281 -55.3481 -58.6321 -2.48058 -1.06633 -15.484 -32.9697 15.6538 -117.032 -58.6188 -7.21201 9.53313 -77.0322 26.7039 109.797 -58.7942 -6.53329 -2.8943 34.8399 -50.0802 -144.359 31.6868 6.61893 17.2964 31.2772 -19.5571 -52.1022 23.4717 3.72484 11.134 
